<svg width="115" height="104" viewBox="0 0 115 104" fill="none" xmlns="http://www.w3.org/2000/svg">
<path fill-rule="evenodd" clip-rule="evenodd" d="M85.5775 0H85.5772H28.5258H28.5257L28.5136 0.0221445L0 51.4669L0.146978 51.7321L0 52L28.5257 104L85.5772 104L114.103 52L113.956 51.7325L114.103 51.4669L85.5775 0ZM21.4273 22.712L5.48978 51.4669L5.57193 51.6151L21.4273 22.712ZM108.531 51.6156L108.614 51.4669L92.6267 22.623L108.531 51.6156ZM8.04119 52L32.5463 7.32921L77.4796 7.32921L51.8671 49.8807L77.5348 96.6708L32.5463 96.6708L8.04119 52ZM83.5663 93.0072L60.0048 50.0567L83.5433 10.9509L106.062 52L83.5663 93.0072Z" fill="#328EB3"/>
</svg>
